Coda-Regular-Cyrillic.ufo
<glyph name="slash" format="1">
  <advance width="1056"/>
  <unicode hex="002F"/>
  <outline>
    <contour>
      <point x="495.113" y="0" type="line" smooth="yes"/>
      <point x="544.389" y="0"/>
      <point x="576.719" y="25.9792"/>
      <point x="587.31" y="74.1042" type="curve" smooth="yes"/>
      <point x="905.69" y="1520.89" type="line" smooth="yes"/>
      <point x="915.379" y="1564.91"/>
      <point x="891.193" y="1595"/>
      <point x="846.113" y="1595" type="curve" smooth="yes"/>
      <point x="563.887" y="1595" type="line" smooth="yes"/>
      <point x="514.607" y="1595"/>
      <point x="482.266" y="1569.01"/>
      <point x="471.646" y="1520.89" type="curve" smooth="yes"/>
      <point x="152.354" y="74.1042" type="line" smooth="yes"/>
      <point x="142.641" y="30.0905"/>
      <point x="166.815" y="0"/>
      <point x="211.887" y="0" type="curve" smooth="yes"/>
    </contour>
  </outline>
</glyph>
<glyph name="less" format="1">
  <advance width="1036"/>
  <unicode hex="003C"/>
  <outline>
    <contour>
      <point x="75" y="564.887" type="line" smooth="yes"/>
      <point x="75" y="514.259"/>
      <point x="97.0551" y="476.688"/>
      <point x="141.262" y="452.011" type="curve" smooth="yes"/>
      <point x="884.738" y="36.9889" type="line" smooth="yes"/>
      <point x="920.296" y="17.1395"/>
      <point x="951" y="35.1639"/>
      <point x="951" y="75.8873" type="curve" smooth="yes"/>
      <point x="951" y="428.113" type="line" smooth="yes"/>
      <point x="951" y="478.587"/>
      <point x="928.157" y="515.136"/>
      <point x="882.787" y="537.255" type="curve" smooth="yes"/>
      <point x="403.569" y="770.884" type="line" smooth="yes"/>
      <point x="376.784" y="783.942"/>
      <point x="376.749" y="810.13"/>
      <point x="403.498" y="823.26" type="curve" smooth="yes"/>
      <point x="882.877" y="1058.56" type="line" smooth="yes"/>
      <point x="928.195" y="1080.81"/>
      <point x="951" y="1117.4"/>
      <point x="951" y="1167.89" type="curve" smooth="yes"/>
      <point x="951" y="1521.11" type="line" smooth="yes"/>
      <point x="951" y="1561.69"/>
      <point x="920.322" y="1579.52"/>
      <point x="885.06" y="1559.44" type="curve" smooth="yes"/>
      <point x="140.94" y="1135.56" type="line" smooth="yes"/>
      <point x="96.9308" y="1110.49"/>
      <point x="75" y="1072.76"/>
      <point x="75" y="1022.11" type="curve" smooth="yes"/>
    </contour>
  </outline>
</glyph>
<glyph name="U" format="1">
  <advance width="1556"/>
  <unicode hex="0055"/>
  <outline>
    <contour>
      <point x="701" y="1519.11" type="line" smooth="yes"/>
      <point x="701" y="1566.6"/>
      <point x="672.603" y="1595"/>
      <point x="625.113" y="1595" type="curve" smooth="yes"/>
      <point x="172.887" y="1595" type="line" smooth="yes"/>
      <point x="125.397" y="1595"/>
      <point x="97" y="1566.6"/>
      <point x="97" y="1519.11" type="curve" smooth="yes"/>
      <point x="97" y="371" type="line" smooth="yes"/>
      <point x="97" y="-7"/>
      <point x="509" y="-39"/>
      <point x="786" y="-39" type="curve" smooth="yes"/>
      <point x="1088" y="-39"/>
      <point x="1479" y="-4"/>
      <point x="1479" y="370" type="curve" smooth="yes"/>
      <point x="1479" y="1518.11" type="line" smooth="yes"/>
      <point x="1479" y="1565.6"/>
      <point x="1450.6" y="1594"/>
      <point x="1403.11" y="1594" type="curve" smooth="yes"/>
      <point x="949.887" y="1594" type="line" smooth="yes"/>
      <point x="902.397" y="1594"/>
      <point x="874" y="1565.6"/>
      <point x="874" y="1518.11" type="curve" smooth="yes"/>
      <point x="874" y="293.596" type="line" smooth="yes"/>
      <point x="874" y="256.301"/>
      <point x="851.699" y="234"/>
      <point x="814.404" y="234" type="curve" smooth="yes"/>
      <point x="760.596" y="234" type="line" smooth="yes"/>
      <point x="723.301" y="234"/>
      <point x="701" y="256.301"/>
      <point x="701" y="293.596" type="curve" smooth="yes"/>
    </contour>
    <contour>
      <point x="778" y="1595" type="move" name="top"/>
    </contour>
    <contour>
      <point x="1400" y="10" type="move" name="ogonek"/>
    </contour>
  </outline>
</glyph>
<glyph name="backslash" format="1">
  <advance width="1053"/>
  <unicode hex="005C"/>
  <outline>
    <contour>
      <point x="188.887" y="1595" type="line" smooth="yes"/>
      <point x="143.807" y="1595"/>
      <point x="119.621" y="1564.91"/>
      <point x="129.31" y="1520.89" type="curve" smooth="yes"/>
      <point x="447.69" y="74.1042" type="line" smooth="yes"/>
      <point x="458.281" y="25.9792"/>
      <point x="490.611" y="0"/>
      <point x="539.887" y="0" type="curve" smooth="yes"/>
      <point x="863.113" y="0" type="line" smooth="yes"/>
      <point x="908.185" y="0"/>
      <point x="932.359" y="30.0905"/>
      <point x="922.646" y="74.1042" type="curve" smooth="yes"/>
      <point x="603.354" y="1520.89" type="line" smooth="yes"/>
      <point x="592.734" y="1569.01"/>
      <point x="560.393" y="1595"/>
      <point x="511.113" y="1595" type="curve" smooth="yes"/>
    </contour>
  </outline>
</glyph>
<glyph name="e" format="1">
  <advance width="1513"/>
  <unicode hex="0065"/>
  <outline>
    <contour>
      <point x="260" y="97"/>
      <point x="289" y="-27"/>
      <point x="783" y="-27" type="curve" smooth="yes"/>
      <point x="1245" y="-27"/>
      <point x="1271" y="136"/>
      <point x="1288" y="272" type="curve" smooth="yes"/>
      <point x="1293" y="313"/>
      <point x="1293" y="353"/>
      <point x="1292" y="372" type="curve" smooth="yes"/>
      <point x="1289" y="403"/>
      <point x="1275" y="409"/>
      <point x="1244" y="409" type="curve" smooth="yes"/>
      <point x="1084" y="409" type="line" smooth="yes"/>
      <point x="1040" y="409"/>
      <point x="1018" y="401"/>
      <point x="1018" y="353" type="curve"/>
      <point x="1018" y="225"/>
      <point x="1010.0" y="195.0"/>
      <point x="777" y="195" type="curve"/>
      <point x="532.0" y="195.0"/>
      <point x="504" y="236"/>
      <point x="504" y="384" type="curve" smooth="yes"/>
      <point x="504" y="564" type="line" smooth="yes"/>
      <point x="504" y="602"/>
      <point x="506" y="604"/>
      <point x="544" y="604" type="curve" smooth="yes"/>
      <point x="1238" y="604" type="line" smooth="yes"/>
      <point x="1286" y="604"/>
      <point x="1306" y="632"/>
      <point x="1314" y="680" type="curve" smooth="yes"/>
      <point x="1321" y="723"/>
      <point x="1321" y="782"/>
      <point x="1316" y="835" type="curve" smooth="yes"/>
      <point x="1284" y="1185"/>
      <point x="1241" y="1327"/>
      <point x="781" y="1327" type="curve" smooth="yes"/>
      <point x="365" y="1327"/>
      <point x="253" y="1240"/>
      <point x="203" y="983" type="curve" smooth="yes"/>
      <point x="189" y="912"/>
      <point x="184" y="773"/>
      <point x="184" y="658" type="curve" smooth="yes"/>
      <point x="184" y="545"/>
      <point x="188" y="381"/>
      <point x="208" y="303" type="curve" smooth="yes"/>
    </contour>
    <contour>
      <point x="504" y="945" type="line" smooth="yes"/>
      <point x="504" y="1066"/>
      <point x="516" y="1105"/>
      <point x="754" y="1105" type="curve"/>
      <point x="987" y="1105"/>
      <point x="1021" y="1069"/>
      <point x="1021" y="945" type="curve" smooth="yes"/>
      <point x="1021" y="817" type="line" smooth="yes"/>
      <point x="1021" y="779"/>
      <point x="1019" y="777"/>
      <point x="981" y="777" type="curve" smooth="yes"/>
      <point x="544" y="777" type="line" smooth="yes"/>
      <point x="506" y="777"/>
      <point x="504" y="779"/>
      <point x="504" y="817" type="curve" smooth="yes"/>
    </contour>
    <contour>
      <point x="757" y="1300" type="move" name="top"/>
    </contour>
    <contour>
      <point x="757" y="0" type="move" name="bottom"/>
    </contour>
    <contour>
      <point x="1362" y="10" type="move" name="ogonek"/>
    </contour>
  </outline>
</glyph>
<glyph name="i" format="1">
  <advance width="759"/>
  <unicode hex="0069"/>
  <outline>
    <contour>
      <point x="179.887" y="1709" type="line" smooth="yes"/>
      <point x="132.397" y="1709"/>
      <point x="104" y="1680.6"/>
      <point x="104" y="1633.11" type="curve" smooth="yes"/>
      <point x="104" y="1500.89" type="line" smooth="yes"/>
      <point x="104" y="1453.4"/>
      <point x="132.397" y="1425"/>
      <point x="179.887" y="1425" type="curve" smooth="yes"/>
      <point x="599.113" y="1425" type="line" smooth="yes"/>
      <point x="646.603" y="1425"/>
      <point x="675" y="1453.4"/>
      <point x="675" y="1500.89" type="curve" smooth="yes"/>
      <point x="675" y="1633.11" type="line" smooth="yes"/>
      <point x="675" y="1680.6"/>
      <point x="646.603" y="1709"/>
      <point x="599.113" y="1709" type="curve" smooth="yes"/>
    </contour>
    <contour>
      <point x="675" y="1224.11" type="line" smooth="yes"/>
      <point x="675" y="1271.6"/>
      <point x="646.603" y="1300"/>
      <point x="599.113" y="1300" type="curve" smooth="yes"/>
      <point x="179.887" y="1300" type="line" smooth="yes"/>
      <point x="132.397" y="1300"/>
      <point x="104" y="1271.6"/>
      <point x="104" y="1224.11" type="curve" smooth="yes"/>
      <point x="104" y="75.8873" type="line" smooth="yes"/>
      <point x="104" y="28.397"/>
      <point x="132.397" y="0"/>
      <point x="179.887" y="0" type="curve" smooth="yes"/>
      <point x="599.113" y="0" type="line" smooth="yes"/>
      <point x="646.603" y="0"/>
      <point x="675" y="28.397"/>
      <point x="675" y="75.8873" type="curve" smooth="yes"/>
    </contour>
  </outline>
</glyph>
<glyph name="n" format="1">
  <advance width="1579"/>
  <unicode hex="006E"/>
  <outline>
    <contour>
      <point x="554" y="879" type="line" smooth="yes"/>
      <point x="554" y="1057"/>
      <point x="578" y="1105"/>
      <point x="802" y="1105" type="curve"/>
      <point x="1033" y="1105"/>
      <point x="1053" y="1064"/>
      <point x="1053" y="886" type="curve" smooth="yes"/>
      <point x="1053" y="76" type="line" smooth="yes"/>
      <point x="1053" y="28"/>
      <point x="1081" y="0"/>
      <point x="1129" y="0" type="curve" smooth="yes"/>
      <point x="1288" y="0" type="line" smooth="yes"/>
      <point x="1336" y="0"/>
      <point x="1361" y="28"/>
      <point x="1364" y="76" type="curve" smooth="yes"/>
      <point x="1373" y="214"/>
      <point x="1376" y="370"/>
      <point x="1376" y="516" type="curve" smooth="yes"/>
      <point x="1376" y="684"/>
      <point x="1371" y="832"/>
      <point x="1364" y="935" type="curve" smooth="yes"/>
      <point x="1345" y="1208"/>
      <point x="1194" y="1327"/>
      <point x="973" y="1327" type="curve" smooth="yes"/>
      <point x="798" y="1327"/>
      <point x="705" y="1294"/>
      <point x="591" y="1222" type="curve" smooth="yes"/>
      <point x="580" y="1215"/>
      <point x="565" y="1204"/>
      <point x="557" y="1204" type="curve" smooth="yes"/>
      <point x="540" y="1204"/>
      <point x="535" y="1224"/>
      <point x="531" y="1237" type="curve"/>
      <point x="519" y="1273"/>
      <point x="509" y="1300"/>
      <point x="471" y="1300" type="curve" smooth="yes"/>
      <point x="319" y="1300" type="line" smooth="yes"/>
      <point x="271" y="1300"/>
      <point x="250" y="1283"/>
      <point x="243" y="1224" type="curve"/>
      <point x="233" y="1046"/>
      <point x="228" y="862"/>
      <point x="228" y="672" type="curve" smooth="yes"/>
      <point x="228" y="481"/>
      <point x="233" y="284"/>
      <point x="243" y="76" type="curve"/>
      <point x="250" y="28"/>
      <point x="271" y="0"/>
      <point x="319" y="0" type="curve" smooth="yes"/>
      <point x="478" y="0" type="line" smooth="yes"/>
      <point x="526" y="0"/>
      <point x="554" y="28"/>
      <point x="554" y="76" type="curve" smooth="yes"/>
    </contour>
    <contour>
      <point x="790" y="1300" type="move" name="top"/>
    </contour>
    <contour>
      <point x="790" y="0" type="move" name="bottom"/>
    </contour>
  </outline>
</glyph>
<glyph name="r" format="1">
  <advance width="981"/>
  <unicode hex="0072"/>
  <outline>
    <contour>
      <point x="595.113" y="0" type="line" smooth="yes"/>
      <point x="642.603" y="0"/>
      <point x="671" y="28.397"/>
      <point x="671" y="75.8873" type="curve" smooth="yes"/>
      <point x="671" y="833.404" type="line" smooth="yes"/>
      <point x="671" y="871.975"/>
      <point x="691.633" y="897.04"/>
      <point x="729.485" y="904.452" type="curve" smooth="yes"/>
      <point x="882.527" y="934.418" type="line" smooth="yes"/>
      <point x="930.727" y="943.856"/>
      <point x="957" y="975.772"/>
      <point x="957" y="1024.89" type="curve" smooth="yes"/>
      <point x="957" y="1255.78" type="line" smooth="yes"/>
      <point x="957" y="1298.78"/>
      <point x="923.932" y="1326.94"/>
      <point x="881.476" y="1320.08" type="curve" smooth="yes"/>
      <point x="785.984" y="1304.65"/>
      <point x="706.064" y="1264.61"/>
      <point x="658.403" y="1204.26" type="curve" smooth="yes"/>
      <point x="639.986" y="1180.94"/>
      <point x="619.033" y="1185.15"/>
      <point x="611.05" y="1213.77" type="curve" smooth="yes"/>
      <point x="607.231" y="1227.46" type="line" smooth="yes"/>
      <point x="594" y="1274.9"/>
      <point x="560.944" y="1300"/>
      <point x="511.695" y="1300" type="curve" smooth="yes"/>
      <point x="176.887" y="1300" type="line" smooth="yes"/>
      <point x="129.39" y="1300"/>
      <point x="100.978" y="1271.61"/>
      <point x="100.942" y="1224.11" type="curve" smooth="yes"/>
      <point x="100.058" y="75.8873" type="line" smooth="yes"/>
      <point x="100.022" y="28.4044"/>
      <point x="128.404" y="0"/>
      <point x="175.887" y="0" type="curve" smooth="yes"/>
    </contour>
    <contour>
      <point x="491" y="1300" type="move" name="top"/>
    </contour>
    <contour>
      <point x="491" y="0" type="move" name="bottom"/>
    </contour>
  </outline>
</glyph>
<glyph name="u" format="1">
  <advance width="1577"/>
  <unicode hex="0075"/>
  <outline>
    <contour>
      <point x="850" y="68" type="curve" smooth="yes"/>
      <point x="860" y="77"/>
      <point x="870" y="82"/>
      <point x="878" y="82" type="curve" smooth="yes"/>
      <point x="891" y="82"/>
      <point x="902" y="71"/>
      <point x="908" y="52" type="curve"/>
      <point x="908" y="54" type="line"/>
      <point x="920" y="18"/>
      <point x="946" y="-1"/>
      <point x="984" y="-1" type="curve" smooth="yes"/>
      <point x="1360" y="-1" type="line" smooth="yes"/>
      <point x="1408" y="-1"/>
      <point x="1429" y="16"/>
      <point x="1436" y="75" type="curve"/>
      <point x="1446" y="253"/>
      <point x="1451" y="437"/>
      <point x="1451" y="627" type="curve" smooth="yes"/>
      <point x="1451" y="818"/>
      <point x="1446" y="1015"/>
      <point x="1436" y="1223" type="curve"/>
      <point x="1429" y="1271"/>
      <point x="1408" y="1299"/>
      <point x="1360" y="1299" type="curve" smooth="yes"/>
      <point x="941" y="1299" type="line" smooth="yes"/>
      <point x="893" y="1299"/>
      <point x="865" y="1271"/>
      <point x="865" y="1223" type="curve" smooth="yes"/>
      <point x="865" y="300" type="line" smooth="yes"/>
      <point x="865" y="262"/>
      <point x="843" y="240"/>
      <point x="805" y="240" type="curve" smooth="yes"/>
      <point x="758" y="240" type="line" smooth="yes"/>
      <point x="720" y="240"/>
      <point x="698" y="262"/>
      <point x="698" y="300" type="curve" smooth="yes"/>
      <point x="698" y="1223" type="line" smooth="yes"/>
      <point x="698" y="1271"/>
      <point x="670" y="1299"/>
      <point x="622" y="1299" type="curve" smooth="yes"/>
      <point x="203" y="1299" type="line" smooth="yes"/>
      <point x="155" y="1299"/>
      <point x="130" y="1271"/>
      <point x="127" y="1223" type="curve" smooth="yes"/>
      <point x="118" y="1085"/>
      <point x="114" y="929"/>
      <point x="114" y="783" type="curve" smooth="yes"/>
      <point x="114" y="615"/>
      <point x="119" y="458"/>
      <point x="127" y="355" type="curve" smooth="yes"/>
      <point x="147" y="104"/>
      <point x="245" y="-27"/>
      <point x="518" y="-28" type="curve" smooth="yes"/>
      <point x="641" y="-28"/>
      <point x="781" y="9"/>
    </contour>
    <contour>
      <point x="789" y="1300" type="move" name="top"/>
    </contour>
    <contour>
      <point x="1419" y="10" type="move" name="ogonek"/>
    </contour>
  </outline>
</glyph>
<glyph name="bar" format="1">
  <advance width="831"/>
  <unicode hex="007C"/>
  <outline>
    <contour>
      <point x="204.887" y="1795" type="line" smooth="yes"/>
      <point x="157.397" y="1795"/>
      <point x="129" y="1766.6"/>
      <point x="129" y="1719.11" type="curve" smooth="yes"/>
      <point x="129" y="-24.1127" type="line" smooth="yes"/>
      <point x="129" y="-71.603"/>
      <point x="157.397" y="-100"/>
      <point x="204.887" y="-100" type="curve" smooth="yes"/>
      <point x="624.113" y="-100" type="line" smooth="yes"/>
      <point x="671.603" y="-100"/>
      <point x="700" y="-71.603"/>
      <point x="700" y="-24.1127" type="curve" smooth="yes"/>
      <point x="700" y="1719.11" type="line" smooth="yes"/>
      <point x="700" y="1766.6"/>
      <point x="671.603" y="1795"/>
      <point x="624.113" y="1795" type="curve" smooth="yes"/>
    </contour>
  </outline>
</glyph>
<glyph name="brokenbar" format="1">
  <advance width="831"/>
  <unicode hex="00A6"/>
  <outline>
    <contour>
      <point x="206.887" y="1708" type="line" smooth="yes"/>
      <point x="159.397" y="1708"/>
      <point x="131" y="1679.6"/>
      <point x="131" y="1632.11" type="curve" smooth="yes"/>
      <point x="131" y="872.887" type="line" smooth="yes"/>
      <point x="131" y="825.397"/>
      <point x="159.397" y="797"/>
      <point x="206.887" y="797" type="curve" smooth="yes"/>
      <point x="626.113" y="797" type="line" smooth="yes"/>
      <point x="673.603" y="797"/>
      <point x="702" y="825.397"/>
      <point x="702" y="872.887" type="curve" smooth="yes"/>
      <point x="702" y="1632.11" type="line" smooth="yes"/>
      <point x="702" y="1679.6"/>
      <point x="673.603" y="1708"/>
      <point x="626.113" y="1708" type="curve" smooth="yes"/>
    </contour>
    <contour>
      <point x="206.887" y="656" type="line" smooth="yes"/>
      <point x="159.397" y="656"/>
      <point x="131" y="627.603"/>
      <point x="131" y="580.113" type="curve" smooth="yes"/>
      <point x="131" y="-179.113" type="line" smooth="yes"/>
      <point x="131" y="-226.603"/>
      <point x="159.397" y="-255"/>
      <point x="206.887" y="-255" type="curve" smooth="yes"/>
      <point x="626.113" y="-255" type="line" smooth="yes"/>
      <point x="673.603" y="-255"/>
      <point x="702" y="-226.603"/>
      <point x="702" y="-179.113" type="curve" smooth="yes"/>
      <point x="702" y="580.113" type="line" smooth="yes"/>
      <point x="702" y="627.603"/>
      <point x="673.603" y="656"/>
      <point x="626.113" y="656" type="curve" smooth="yes"/>
    </contour>
  </outline>
</glyph>
<glyph name="logicalnot" format="1">
  <advance width="1269"/>
  <unicode hex="00AC"/>
  <outline>
    <contour>
      <point x="1179" y="1029.11" type="line" smooth="yes"/>
      <point x="1179" y="1076.6"/>
      <point x="1150.6" y="1105"/>
      <point x="1103.11" y="1105" type="curve" smooth="yes"/>
      <point x="158.887" y="1105" type="line" smooth="yes"/>
      <point x="111.397" y="1105"/>
      <point x="83" y="1076.6"/>
      <point x="83" y="1029.11" type="curve" smooth="yes"/>
      <point x="83" y="866.887" type="line" smooth="yes"/>
      <point x="83" y="819.397"/>
      <point x="111.397" y="791"/>
      <point x="158.887" y="791" type="curve" smooth="yes"/>
      <point x="890.404" y="791" type="line" smooth="yes"/>
      <point x="927.699" y="791"/>
      <point x="950" y="768.699"/>
      <point x="950" y="731.404" type="curve" smooth="yes"/>
      <point x="950" y="375.887" type="line" smooth="yes"/>
      <point x="950" y="328.397"/>
      <point x="978.397" y="300"/>
      <point x="1025.89" y="300" type="curve" smooth="yes"/>
      <point x="1103.11" y="300" type="line" smooth="yes"/>
      <point x="1150.6" y="300"/>
      <point x="1179" y="328.397"/>
      <point x="1179" y="375.887" type="curve" smooth="yes"/>
    </contour>
  </outline>
</glyph>
<glyph name="plusminus" format="1">
  <advance width="1304"/>
  <unicode hex="00B1"/>
  <outline>
    <contour>
      <point x="305.887" y="300" type="line" smooth="yes"/>
      <point x="258.397" y="300"/>
      <point x="230" y="271.603"/>
      <point x="230" y="224.113" type="curve" smooth="yes"/>
      <point x="230" y="74.8873" type="line" smooth="yes"/>
      <point x="230" y="27.397"/>
      <point x="258.397" y="-1"/>
      <point x="305.887" y="-1" type="curve" smooth="yes"/>
      <point x="988.113" y="-1" type="line" smooth="yes"/>
      <point x="1035.6" y="-1"/>
      <point x="1064" y="27.397"/>
      <point x="1064" y="74.8873" type="curve" smooth="yes"/>
      <point x="1064" y="224.113" type="line" smooth="yes"/>
      <point x="1064" y="271.603"/>
      <point x="1035.6" y="300"/>
      <point x="988.113" y="300" type="curve" smooth="yes"/>
    </contour>
    <contour>
      <point x="167.887" y="1214" type="line" smooth="yes"/>
      <point x="120.397" y="1214"/>
      <point x="92" y="1185.6"/>
      <point x="92" y="1138.11" type="curve" smooth="yes"/>
      <point x="92" y="956.887" type="line" smooth="yes"/>
      <point x="92" y="909.397"/>
      <point x="120.397" y="881"/>
      <point x="167.887" y="881" type="curve" smooth="yes"/>
      <point x="397.404" y="881" type="line" smooth="yes"/>
      <point x="434.699" y="881"/>
      <point x="457" y="858.699"/>
      <point x="457" y="821.404" type="curve" smooth="yes"/>
      <point x="457" y="578.887" type="line" smooth="yes"/>
      <point x="457" y="531.397"/>
      <point x="485.397" y="503"/>
      <point x="532.887" y="503" type="curve" smooth="yes"/>
      <point x="773.113" y="503" type="line" smooth="yes"/>
      <point x="820.603" y="503"/>
      <point x="849" y="531.397"/>
      <point x="849" y="578.887" type="curve" smooth="yes"/>
      <point x="849" y="821.404" type="line" smooth="yes"/>
      <point x="849" y="858.699"/>
      <point x="871.301" y="881"/>
      <point x="908.596" y="881" type="curve" smooth="yes"/>
      <point x="1137.11" y="881" type="line" smooth="yes"/>
      <point x="1184.6" y="881"/>
      <point x="1213" y="909.397"/>
      <point x="1213" y="956.887" type="curve" smooth="yes"/>
      <point x="1213" y="1138.11" type="line" smooth="yes"/>
      <point x="1213" y="1185.6"/>
      <point x="1184.6" y="1214"/>
      <point x="1137.11" y="1214" type="curve" smooth="yes"/>
      <point x="908.596" y="1214" type="line" smooth="yes"/>
      <point x="871.301" y="1214"/>
      <point x="849" y="1236.3"/>
      <point x="849" y="1273.6" type="curve" smooth="yes"/>
      <point x="849" y="1519.11" type="line" smooth="yes"/>
      <point x="849" y="1566.6"/>
      <point x="820.603" y="1595"/>
      <point x="773.113" y="1595" type="curve" smooth="yes"/>
      <point x="532.887" y="1595" type="line" smooth="yes"/>
      <point x="485.397" y="1595"/>
      <point x="457" y="1566.6"/>
      <point x="457" y="1519.11" type="curve" smooth="yes"/>
      <point x="457" y="1273.6" type="line" smooth="yes"/>
      <point x="457" y="1236.3"/>
      <point x="434.699" y="1214"/>
      <point x="397.404" y="1214" type="curve" smooth="yes"/>
    </contour>
  </outline>
</glyph>
<glyph name="cedilla" format="1">
  <advance width="948"/>
  <unicode hex="00B8"/>
  <outline>
    <contour>
      <point x="384" y="-104.113" type="line" smooth="yes"/>
      <point x="384" y="-151.603"/>
      <point x="412.397" y="-180"/>
      <point x="459.887" y="-180" type="curve" smooth="yes"/>
      <point x="514.404" y="-180" type="line" smooth="yes"/>
      <point x="551.699" y="-180"/>
      <point x="574" y="-202.301"/>
      <point x="574" y="-239.596" type="curve" smooth="yes"/>
      <point x="574" y="-340.5" type="line" smooth="yes"/>
      <point x="574" y="-359.587"/>
      <point x="562.587" y="-371"/>
      <point x="543.5" y="-371" type="curve" smooth="yes"/>
      <point x="541.5" y="-371" type="line" smooth="yes"/>
      <point x="522.413" y="-371"/>
      <point x="511" y="-359.587"/>
      <point x="511" y="-340.5" type="curve" smooth="yes"/>
      <point x="511" y="-304" type="line" smooth="yes"/>
      <point x="511" y="-264.427"/>
      <point x="485.764" y="-242.113"/>
      <point x="446.489" y="-246.957" type="curve" smooth="yes"/>
      <point x="310.797" y="-263.695" type="line" smooth="yes"/>
      <point x="293.643" y="-265.811"/>
      <point x="284" y="-276.716"/>
      <point x="284" y="-294" type="curve" smooth="yes"/>
      <point x="284" y="-323" type="line" smooth="yes"/>
      <point x="284" y="-457"/>
      <point x="389" y="-481"/>
      <point x="538" y="-481" type="curve" smooth="yes"/>
      <point x="678" y="-481"/>
      <point x="791" y="-460"/>
      <point x="791" y="-323" type="curve" smooth="yes"/>
      <point x="791" y="-228" type="line" smooth="yes"/>
      <point x="791" y="-111.604"/>
      <point x="715.402" y="-75.846"/>
      <point x="594.999" y="-70.6862" type="curve" smooth="yes"/>
      <point x="573.032" y="-69.7448"/>
      <point x="561" y="-57.186"/>
      <point x="561" y="-35.2292" type="curve" smooth="yes"/>
      <point x="561" y="-34" type="line" smooth="yes"/>
      <point x="561" y="-12.7228"/>
      <point x="548.277" y="0"/>
      <point x="527" y="0" type="curve" smooth="yes"/>
      <point x="459.887" y="0" type="line" smooth="yes"/>
      <point x="412.397" y="0"/>
      <point x="384" y="-28.397"/>
      <point x="384" y="-75.8873" type="curve" smooth="yes"/>
    </contour>
    <contour>
      <point x="537.5" y="0" type="move" name="_bottom"/>
    </contour>
  </outline>
</glyph>
<glyph name="circumflex" format="1">
  <advance width="954"/>
  <unicode hex="02C6"/>
  <outline>
    <contour>
      <point x="54" y="1475" type="curve" smooth="yes"/>
      <point x="54" y="1438"/>
      <point x="84" y="1413"/>
      <point x="120" y="1413" type="curve" smooth="yes"/>
      <point x="137" y="1413"/>
      <point x="156" y="1419"/>
      <point x="174" y="1433" type="curve" smooth="yes"/>
      <point x="429.908" y="1631.48" type="line" smooth="yes"/>
      <point x="460.628" y="1655.3"/>
      <point x="493.372" y="1655.3"/>
      <point x="524.092" y="1631.48" type="curve" smooth="yes"/>
      <point x="780" y="1433" type="line" smooth="yes"/>
      <point x="799" y="1418"/>
      <point x="819" y="1411"/>
      <point x="837" y="1411" type="curve" smooth="yes"/>
      <point x="872" y="1411"/>
      <point x="900" y="1437"/>
      <point x="900" y="1474" type="curve" smooth="yes"/>
      <point x="900" y="1490"/>
      <point x="894" y="1508"/>
      <point x="882" y="1527" type="curve" smooth="yes"/>
      <point x="619" y="1936" type="line" smooth="yes"/>
      <point x="586" y="1987"/>
      <point x="531" y="2008"/>
      <point x="478" y="2008" type="curve" smooth="yes"/>
      <point x="423" y="2008"/>
      <point x="366" y="1984"/>
      <point x="335" y="1936" type="curve" smooth="yes"/>
      <point x="72" y="1527" type="line" smooth="yes"/>
      <point x="60" y="1508"/>
      <point x="54" y="1490"/>
    </contour>
    <contour>
      <point x="477" y="1300" type="move" name="_top"/>
    </contour>
  </outline>
</glyph>
<glyph name="uni030F" format="1">
  <advance width="226"/>
  <unicode hex="030F"/>
  <outline>
    <contour>
      <point x="0" y="1300" type="move" name="_top"/>
    </contour>
  </outline>
</glyph>
<glyph name="afii10055" format="1">
  <advance width="926"/>
  <unicode hex="0406"/>
  <outline>
    <component base="I"/>
    <contour>
      <point x="463" y="1595" type="move" name="top"/>
    </contour>
  </outline>
</glyph>
<glyph name="afii10022" format="1">
  <advance width="1191"/>
  <unicode hex="0415"/>
  <outline>
    <component base="E"/>
    <contour>
      <point x="596" y="1595" type="move" name="top"/>
    </contour>
  </outline>
</glyph>
<glyph name="afii10028" format="1">
  <advance width="1725"/>
  <unicode hex="041A"/>
  <outline>
    <component base="K"/>
    <contour>
      <point x="863" y="1595" type="move" name="top"/>
    </contour>
  </outline>
</glyph>
<glyph name="afii10085" format="1">
  <advance width="1342"/>
  <unicode hex="0443"/>
  <outline>
    <component base="y"/>
    <contour>
      <point x="671" y="1300" type="move" name="top"/>
    </contour>
  </outline>
</glyph>
<glyph name="afii10050" format="1">
  <advance width="1313"/>
  <unicode hex="0490"/>
  <outline>
    <contour>
      <point x="957" y="76" type="curve" smooth="yes"/>
      <point x="971" y="265"/>
      <point x="978" y="562"/>
      <point x="978" y="842" type="curve" smooth="yes"/>
      <point x="978" y="1033"/>
      <point x="975" y="1198"/>
      <point x="968" y="1326" type="curve"/>
      <point x="1297" y="1326" type="line" smooth="yes"/>
      <point x="1345" y="1326"/>
      <point x="1373" y="1354"/>
      <point x="1373" y="1402" type="curve" smooth="yes"/>
      <point x="1373" y="1519" type="line" smooth="yes"/>
      <point x="1373" y="1567"/>
      <point x="1345" y="1595"/>
      <point x="1297" y="1595" type="curve" smooth="yes"/>
      <point x="419" y="1595" type="line" smooth="yes"/>
      <point x="371" y="1595"/>
      <point x="344.729" y="1566.97"/>
      <point x="343" y="1519" type="curve" smooth="yes"/>
      <point x="341" y="1463.5"/>
      <point x="332" y="1232.89"/>
      <point x="332" y="842" type="curve" smooth="yes"/>
      <point x="332" y="531"/>
      <point x="340" y="216"/>
      <point x="353" y="76" type="curve" smooth="yes"/>
      <point x="357" y="30"/>
      <point x="381" y="0"/>
      <point x="429" y="0" type="curve" smooth="yes"/>
      <point x="881" y="0" type="line" smooth="yes"/>
      <point x="929" y="0"/>
      <point x="954" y="29"/>
    </contour>
  </outline>
</glyph>
<glyph name="bullet" format="1">
  <advance width="1120"/>
  <unicode hex="2022"/>
  <outline>
    <contour>
      <point x="579" y="1254" type="curve" smooth="yes"/>
      <point x="213" y="1254"/>
      <point x="71" y="1102"/>
      <point x="71" y="726" type="curve" smooth="yes"/>
      <point x="71" y="381"/>
      <point x="181" y="195"/>
      <point x="577" y="195" type="curve" smooth="yes"/>
      <point x="947" y="195"/>
      <point x="1053" y="407"/>
      <point x="1053" y="726" type="curve" smooth="yes"/>
      <point x="1053" y="1076"/>
      <point x="921" y="1254"/>
    </contour>
  </outline>
</glyph>
